<svg xmlns="http://www.w3.org/2000/svg" viewBox="0 0 92.3 90" class="footer-logo-mktg d-block" height="30"><g fill="#3aa675"><path d="m46.1 0c-25.5 0-46.1 20.6-46.1 46.1 0 20.4 13.2 37.7 31.5 43.8 2.3.4 3.2-1 3.2-2.2 0-1.1-.1-4.7-.1-8.6-11.6 2.1-14.6-2.8-15.5-5.4-.5-1.3-2.8-5.4-4.7-6.5-1.6-.9-3.9-3-.1-3.1 3.6-.1 6.2 3.3 7.1 4.7 4.2 7 10.8 5 13.4 3.8.4-3 1.6-5 2.9-6.2-10.3-1.2-21-5.1-21-22.8 0-5 1.8-9.2 4.7-12.4-.5-1.2-2.1-5.9.5-12.2 0 0 3.9-1.2 12.7 4.7 3.7-1 7.6-1.6 11.5-1.6s7.8.5 11.5 1.6c8.8-6 12.7-4.7 12.7-4.7 2.5 6.3.9 11.1.5 12.2 2.9 3.2 4.7 7.3 4.7 12.4 0 17.7-10.8 21.6-21.1 22.8 1.7 1.4 3.1 4.2 3.1 8.5 0 6.2-.1 11.1-.1 12.7 0 1.2.9 2.7 3.2 2.2 18.2-6.1 31.4-23.4 31.4-43.8.3-25.4-20.4-46-45.9-46z"></path></g></svg>