<svg xmlns="http://www.w3.org/2000/svg" xmlns:xlink="http://www.w3.org/1999/xlink" version="1.1" width="256" height="256" viewBox="0 0 256 256" xml:space="preserve">
<g style="stroke: none; stroke-width: 0; stroke-dasharray: none; stroke-linecap: butt; stroke-linejoin: miter; stroke-miterlimit: 10; fill: none; fill-rule: nonzero; opacity: 1;" transform="translate(1.4065934065934016 1.4065934065934016) scale(2.81 2.81)">
	<path d="M 84.256 61.846 H 5.744 C 3.135 61.846 1 59.711 1 57.102 V 32.898 c 0 -2.609 2.135 -4.744 4.744 -4.744 h 78.513 c 2.609 0 4.744 2.135 4.744 4.744 v 24.205 C 89 59.711 86.865 61.846 84.256 61.846 z" style="stroke: none; stroke-width: 1; stroke-dasharray: none; stroke-linecap: butt; stroke-linejoin: miter; stroke-miterlimit: 10; fill: rgb(114,216,106); fill-rule: nonzero; opacity: 1;" transform=" matrix(1 0 0 1 0 0) " stroke-linecap="round"/>
	<path d="M 19.229 54.208 H 11.95 c -0.552 0 -1 -0.447 -1 -1 V 36.792 c 0 -0.552 0.448 -1 1 -1 s 1 0.448 1 1 v 15.417 h 6.278 c 0.552 0 1 0.447 1 1 S 19.781 54.208 19.229 54.208 z" style="stroke: none; stroke-width: 1; stroke-dasharray: none; stroke-linecap: butt; stroke-linejoin: miter; stroke-miterlimit: 10; fill: rgb(0,0,0); fill-rule: nonzero; opacity: 1;" transform=" matrix(1 0 0 1 0 0) " stroke-linecap="round"/>
	<path d="M 31.554 54.208 h -3.11 c -2.503 0 -4.54 -2.036 -4.54 -4.539 v -9.338 c 0 -2.503 2.037 -4.54 4.54 -4.54 h 3.11 c 2.503 0 4.54 2.037 4.54 4.54 v 9.338 C 36.094 52.172 34.058 54.208 31.554 54.208 z M 28.444 37.792 c -1.4 0 -2.54 1.139 -2.54 2.54 v 9.338 c 0 1.4 1.139 2.539 2.54 2.539 h 3.11 c 1.4 0 2.54 -1.139 2.54 -2.539 v -9.338 c 0 -1.4 -1.14 -2.54 -2.54 -2.54 H 28.444 z" style="stroke: none; stroke-width: 1; stroke-dasharray: none; stroke-linecap: butt; stroke-linejoin: miter; stroke-miterlimit: 10; fill: rgb(0,0,0); fill-rule: nonzero; opacity: 1;" transform=" matrix(1 0 0 1 0 0) " stroke-linecap="round"/>
	<path d="M 59.969 54.208 c -0.553 0 -1 -0.447 -1 -1 V 36.792 c 0 -0.552 0.447 -1 1 -1 s 1 0.448 1 1 v 16.417 C 60.969 53.761 60.521 54.208 59.969 54.208 z" style="stroke: none; stroke-width: 1; stroke-dasharray: none; stroke-linecap: butt; stroke-linejoin: miter; stroke-miterlimit: 10; fill: rgb(0,0,0); fill-rule: nonzero; opacity: 1;" transform=" matrix(1 0 0 1 0 0) " stroke-linecap="round"/>
	<path d="M 78.05 54.208 c -0.34 0 -0.664 -0.174 -0.85 -0.473 l -8.341 -13.437 v 12.909 c 0 0.553 -0.447 1 -1 1 s -1 -0.447 -1 -1 V 36.792 c 0 -0.447 0.296 -0.839 0.726 -0.962 c 0.43 -0.125 0.889 0.055 1.124 0.435 l 8.341 13.437 v -12.91 c 0 -0.552 0.447 -1 1 -1 s 1 0.448 1 1 v 16.417 c 0 0.446 -0.296 0.839 -0.726 0.962 C 78.233 54.195 78.141 54.208 78.05 54.208 z" style="stroke: none; stroke-width: 1; stroke-dasharray: none; stroke-linecap: butt; stroke-linejoin: miter; stroke-miterlimit: 10; fill: rgb(0,0,0); fill-rule: nonzero; opacity: 1;" transform=" matrix(1 0 0 1 0 0) " stroke-linecap="round"/>
	<path d="M 48.826 54.208 h -3.111 c -2.503 0 -4.54 -2.036 -4.54 -4.539 v -9.338 c 0 -2.503 2.037 -4.54 4.54 -4.54 h 5.026 c 0.553 0 1 0.448 1 1 s -0.447 1 -1 1 h -5.026 c -1.4 0 -2.54 1.139 -2.54 2.54 v 9.338 c 0 1.4 1.139 2.539 2.54 2.539 h 3.111 c 1.4 0 2.539 -1.139 2.539 -2.539 V 46 h -2.048 c -0.553 0 -1 -0.448 -1 -1 s 0.447 -1 1 -1 h 3.048 c 0.553 0 1 0.448 1 1 v 4.669 C 53.365 52.172 51.329 54.208 48.826 54.208 z" style="stroke: none; stroke-width: 1; stroke-dasharray: none; stroke-linecap: butt; stroke-linejoin: miter; stroke-miterlimit: 10; fill: rgb(0,0,0); fill-rule: nonzero; opacity: 1;" transform=" matrix(1 0 0 1 0 0) " stroke-linecap="round"/>
	<path d="M 84.257 62.846 H 5.744 C 2.577 62.846 0 60.27 0 57.103 V 32.898 c 0 -3.167 2.577 -5.744 5.744 -5.744 h 78.513 c 3.167 0 5.743 2.577 5.743 5.744 v 24.205 C 90 60.27 87.424 62.846 84.257 62.846 z M 5.744 29.154 C 3.679 29.154 2 30.833 2 32.898 v 24.205 c 0 2.064 1.679 3.743 3.744 3.743 h 78.513 c 2.064 0 3.743 -1.679 3.743 -3.743 V 32.898 c 0 -2.064 -1.679 -3.744 -3.743 -3.744 H 5.744 z" style="stroke: none; stroke-width: 1; stroke-dasharray: none; stroke-linecap: butt; stroke-linejoin: miter; stroke-miterlimit: 10; fill: rgb(0,0,0); fill-rule: nonzero; opacity: 1;" transform=" matrix(1 0 0 1 0 0) " stroke-linecap="round"/>
</g>
</svg>