<?xml version="1.0" encoding="UTF-8" standalone="no"?>
<svg
   aria-label="Vue"
   role="img"
   viewBox="0 0 64 64"
   version="1.1"
   id="svg8"
   sodipodi:docname="vuejs-google-logo-final.svg"
   width="64"
   height="64"
   inkscape:version="1.4.3 (0d15f75, 2025-12-25)"
   xmlns:inkscape="http://www.inkscape.org/namespaces/inkscape"
   xmlns:sodipodi="http://sodipodi.sourceforge.net/DTD/sodipodi-0.dtd"
   xmlns="http://www.w3.org/2000/svg"
   xmlns:svg="http://www.w3.org/2000/svg"
   xmlns:rdf="http://www.w3.org/1999/02/22-rdf-syntax-ns#"
   xmlns:cc="http://creativecommons.org/ns#"
   xmlns:dc="http://purl.org/dc/elements/1.1/">
  <metadata
     id="metadata14">
    <rdf:RDF>
      <cc:Work
         rdf:about="">
        <dc:format>image/svg+xml</dc:format>
        <dc:type
           rdf:resource="http://purl.org/dc/dcmitype/StillImage" />
      </cc:Work>
    </rdf:RDF>
  </metadata>
  <defs
     id="defs12" />
  <sodipodi:namedview
     pagecolor="#ffffff"
     bordercolor="#666666"
     borderopacity="1"
     objecttolerance="10"
     gridtolerance="10"
     guidetolerance="10"
     inkscape:pageopacity="0"
     inkscape:pageshadow="2"
     inkscape:window-width="1440"
     inkscape:window-height="842"
     id="namedview10"
     showgrid="false"
     inkscape:zoom="13.207236"
     inkscape:cx="25.857038"
     inkscape:cy="26.765631"
     inkscape:window-x="0"
     inkscape:window-y="30"
     inkscape:window-maximized="0"
     inkscape:current-layer="svg8"
     inkscape:pagecheckerboard="true"
     inkscape:showpageshadow="2"
     inkscape:deskcolor="#d1d1d1" />
  <path
     d="M 39.33333,5.5 32,18.33333 24.709636,5.5546875 H 0.04296875 L 32,61 64,5.5 Z"
     id="path4"
     inkscape:connector-curvature="0"
     style="fill:#34a853;fill-opacity:1;stroke:none;stroke-width:0.166667"
     sodipodi:nodetypes="ccccccc" />
  <path
     d="M 39.33333,5.5 32,18.33333 24.666667,5.5 H 12.833333 L 32,38.83333 51.16667,5.5 Z"
     id="path6"
     inkscape:connector-curvature="0"
     style="fill:#4285f4;stroke-width:0.16666667;fill-opacity:1" />
  <path
     style="fill:#eb4335;fill-opacity:1;stroke:#000000;stroke-width:0;stroke-dasharray:none"
     d="m 12.827993,5.5026583 11.857638,-0.016269 7.316734,12.8590053 c 0,0 -2.091867,3.190003 -1.765401,5.182456 0.331339,2.128741 2.56549,3.352472 3.495391,5.939351 1.084027,2.908746 -1.712381,9.434997 -1.712381,9.434997 L 20.12487,18.345395 Z"
     id="path1"
     sodipodi:nodetypes="cccccccc" />
  <path
     style="fill:#fbbc05;fill-opacity:1;stroke:#000000;stroke-width:0;stroke-miterlimit:3.5;stroke-dasharray:none;stroke-opacity:1"
     d="M -0.00128676,5.5053735 12.824165,5.4985904 32.048478,38.905835 c 0,0 1.795645,2.51898 1.742221,5.644771 -0.115461,3.460036 -3.211809,5.019912 -3.518862,8.056964 -0.274358,3.200879 1.736092,8.405276 1.736092,8.405276 z"
     id="path2"
     sodipodi:nodetypes="ccccccc" />
</svg>
